# xmcd
#
# Track frame offsets: 
#        150
#        12286
#        23890
#        35093
#        46057
#        57513
#        69375
#        81309
#        92184
#        104607
#        117076
#        128908
#        142246
#        153336
#        161540
#        173477
#        185248
#        196110
#        204070
#        217791
#        227378
#        241409
#        253264
#        263229
#        275393
#
# Disc length: 3788 seconds
#
# Revision: 0
# Processed by: cddbd v1.5.2PL0 Copyright (c) Steve Scherf et al.
# Submitted via: ExactAudioCopy v0.95a5
#
DISCID=5d0eca19
DTITLE=Cass County Boys - Beautiful Texas
DYEAR=2005
DGENRE=Folk
TTITLE0=Roundup In The Sky
TTITLE1=Cowboy's Heaven
TTITLE2=Golden Wings And Silver Spurs
TTITLE3=Gallopin' To Glory
TTITLE4=When It's Roundup Time In Glory
TTITLE5=When The Curtains Of night
TTITLE6=Touch Of God's Hand
TTITLE7=Roll Along Jordan
TTITLE8=Deep In The Heart Of Texas
TTITLE9=Just A Bouquet Of Yellow Roses
TTITLE10=Was The Cowboy Right Or Wrong
TTITLE11=Beautiful Texas
TTITLE12=Boogie Woogie Cowboy
TTITLE13=Pecos Bill
TTITLE14=Yellow Rose Of Texas
TTITLE15=When The Bloom Is On The Sazge
TTITLE16=Sagebrush Serenade
TTITLE17=I'm Gonna Gallop, Gallop
TTITLE18=Texas Song
TTITLE19=Ida Red
TTITLE20=Go West Young Man
TTITLE21=See That You're Born In Texas
TTITLE22=Silver On The Sage Tonight
TTITLE23=Sleepy Rio Grande
TTITLE24=Listen To The Mocking Bird
EXTD=
EXTT0=
EXTT1=
EXTT2=
EXTT3=
EXTT4=
EXTT5=
EXTT6=
EXTT7=
EXTT8=
EXTT9=
EXTT10=
EXTT11=
EXTT12=
EXTT13=
EXTT14=
EXTT15=
EXTT16=
EXTT17=
EXTT18=
EXTT19=
EXTT20=
EXTT21=
EXTT22=
EXTT23=
EXTT24=
PLAYORDER=
